<?xml version="1.0" encoding="utf-8"?>
<!-- Generator: Adobe Illustrator 27.4.0, SVG Export Plug-In . SVG Version: 6.00 Build 0)  -->
<svg version="1.1" id="Capa_1" xmlns="http://www.w3.org/2000/svg" xmlns:xlink="http://www.w3.org/1999/xlink" x="0px" y="0px"
	 viewBox="0 0 697.2 181.3" style="enable-background:new 0 0 697.2 181.3;" xml:space="preserve">
<style type="text/css">
	.st0{fill:#65C881;}
	.st1{fill:#171D31;}
</style>
<g>
	<path class="st0" d="M319.8,18c-7,0-13.1,3.5-16.8,8.8v-1.3c0-10.8-8.8-19.6-19.6-19.6h-20.6c0,10.8,8.8,19.6,19.6,19.6h14v32.7
		h6.5V38.6h15.9c11.4,0,20.6-9.2,20.6-20.6H319.8z"/>
	<g>
		<path class="st1" d="M417.8,157.3H385v-10.9h-21.9v1.8c-1.3,6.6-3.5,11.1-6,13.1c-3,2.3-6.2,3.9-10.4,3.9c-4.2,0-8.4-1.2-12.5-3.7
			c-4-2.4-8.7-6.6-13.9-12.6l-0.7-0.8l0.7-0.9c6.2-7.7,11.8-16.1,16.7-24.9c5.1-9.2,8.8-14.6,11.3-16.5c2.4-1.8,5.8-2.9,10.3-3.4
			v-0.6h-32.8v0.7c2.1,0.5,3.8,1.4,4.9,2.9c1.9,2.3,2.9,5,2.9,8c0,8.3-5.1,18.6-15.2,30.6l-1.1,1.3l-1-1.4
			c-7.8-10.6-15.3-22.4-22.5-35.1l-0.7-1.2l1.2-0.6c10.1-5.3,17-9.8,20.5-13.6c4.4-4.8,6.6-10.1,6.6-15.8c0-5.5-1.9-10-5.9-13.7
			c-4-3.7-9.2-5.6-15.5-5.6c-6.7,0-12.7,1.9-18,5.6C275.3,68.7,272,75.6,272,85c0,3.3,0.5,6.7,1.4,10.4c0.9,3.7,2.7,8.4,5.3,14.2
			l0.5,1.1l-1.1,0.6c-13.3,7.1-22.4,14.1-27.2,20.7c-4,5.5-6.3,11-6.9,16.4c-1.5,1.6-8,8.2-15.4,8.3c-2.5,0-6.2-0.1-10.8-2.9
			c-4.3-2.6-8.3-7.8-11.8-15.5l27.4-7.3l0.2-0.3c1.3-1.8,2-3.8,2-5.9c0-2.6-1-5.4-3-8.4c-3.6-5.4-9.9-8.2-18.8-8.2
			c-8.3,0-15.5,3-21.4,8.8c-5.9,5.9-8.8,13.1-8.8,21.4c0,8.3,3,15.5,8.8,21.3c5.9,5.9,13.1,8.8,21.4,8.8c8.9,0,17.2-5.6,23-10
			c4.1-3.1,6.1-5.3,6.9-6.5c0.2,6.3,2.7,11.6,7.7,16.2c5.2,4.7,12.3,7.1,21.3,7.1c6.2,0,12-1.2,17.4-3.5c5.5-2.4,11.7-6.6,18.5-12.6
			l1-0.8l0.9,0.9c5.5,5.8,10.6,10,15.2,12.5c4.5,2.4,9.1,3.6,13.5,3.6c5.8,0,10.9-1.8,15.3-5.4c3.6-2.9,7.1-7.2,8.7-12.8H374v10.9
			h54.7v-10.9h10.9V91.7h-21.9V157.3z M201.8,121.3c0-5.9,2.5-8.7,7.9-8.7c2.3,0,3.8,1.1,4.8,3.6c1,2.7,1.5,5.4,1.5,7.8
			c0,4.1-0.9,6.9-2.6,8.4l-8.7,2.4C202.7,130,201.8,125.5,201.8,121.3z M288.4,66.7c3.1-3.3,7-4.9,11.4-4.9c4.1,0,7.6,1.5,10.4,4.4
			c2.7,2.9,4.1,6.6,4.1,11.1c0,10.8-7.3,19.7-21.6,26.5l-1.2,0.6l-0.5-1.3c-2.8-6.5-4.8-11.6-5.7-15.1c-1-3.6-1.5-6.7-1.5-9.4
			C283.8,73.9,285.3,69.9,288.4,66.7z M306.1,156.4c-5.8,4.7-10.4,7.8-13.8,9.2c-3.4,1.5-7,2.2-10.7,2.2c-7.1,0-12.8-2.5-16.9-7.4
			c-4-4.8-6.1-10.4-6.1-16.7c0-11.4,7.1-21.2,21-29.2l1.2-0.7l0.6,1.3c3.3,6.9,6.5,12.7,9.4,17.3c2.9,4.6,8.1,12.1,15.5,22.1l0.7,1
			L306.1,156.4z"/>
		<path class="st1" d="M511.1,113.5h-54.7v10.9h-10.9v32.8h10.9v10.9h54.7v-10.9H522v-32.8h-10.9V113.5z M500.1,157.3h-32.8v-32.8
			h32.8V157.3z"/>
		<polygon class="st1" points="592.8,135.4 549.1,135.4 549.1,124.5 592.8,124.5 592.8,113.5 538.1,113.5 538.1,124.5 527.2,124.5 
			527.2,135.4 538.1,135.4 538.1,146.3 581.9,146.3 581.9,157.3 527.2,157.3 527.2,168.2 592.8,168.2 592.8,157.3 603.7,157.3 
			603.7,146.3 592.8,146.3 		"/>
		<path class="st1" d="M685.6,146.3v-21.9h-10.9v-10.9H620v10.9h-10.9v32.8H620v10.9h54.7v-10.9H631v-10.9H685.6z M631,124.5h32.8
			v10.9H631V124.5z"/>
		<path class="st1" d="M86.1,161.2L86.1,161.2c-1.4-1.8-2.5-3.5-3.1-5.2c-9.8-23-19.9-46.6-29.9-70.2l-0.1-0.2l-0.1-0.1
			c-0.9-1-2.1-1.5-3.5-1.5h-0.7l-31.1,72.6c-0.8,1.8-2,3.3-3.5,4.3c-1.6,1.1-3.3,2-5,2.7l-0.7,0.3l-0.1,3.2h13.9v-2.8L22,164
			c-0.8-1.2-1.2-2.4-1.2-3.6c0-0.8,0.2-1.7,0.5-2.5l6.5-15.4h25.5l6.5,15.2c0.4,0.9,0.6,1.7,0.6,2.6c0,1-0.4,2.2-1.3,3.8l-0.1,0.2
			v2.8h33v-3.6h-1.1C89,163.6,87.4,162.8,86.1,161.2z M29.4,138.7l11-26.1c0.3,0.5,0.5,1,0.7,1.6l10.5,24.5H29.4z"/>
		<path class="st1" d="M130,108.4c-4,0-7.9,2.3-11.6,6.8l0-2.3c-0.2-3.9-2.7-4.5-4.2-4.5H114l-29.7,11.9l5.1,0.2
			c1.9,0.1,3.3,0.6,4.3,1.6c1.1,1,1.9,2.2,2.3,3.6c0.5,1.4,0.7,2.5,0.7,3.4v33.6c0,1.3,0.5,2.4,1.4,3.3c0.9,0.8,2,1.3,3.3,1.3H122
			v-2.4l-0.3-0.3c-0.5-0.5-1.3-1.7-2.2-4.5c-0.7-2.3-1.1-4.7-1.1-7.1v-22.7c0-7.6,0.6-9.7,0.9-10.3c0.6-1.1,1.2-1.3,1.6-1.3
			c1.5,0,2.2,1.8,2.2,5.3c0,3.3,0.9,5.7,2.8,7.1c1.7,1.3,3.7,1.9,5.8,1.9c2.7,0,5.2-1.1,7.5-3.1c2.2-2.1,3.4-5.4,3.4-9.8
			c0-3.5-1-6.3-2.9-8.4C137.7,109.5,134.5,108.4,130,108.4z"/>
		<path class="st1" d="M174.3,159.9c-0.7-2.3-1.1-4.7-1.1-7.2V84.8c0-2.5-1.5-4.1-4.1-4.5l-0.3,0l-29.8,12l5,0.2
			c1.9,0.1,3.3,0.6,4.3,1.6c1.1,1,1.9,2.2,2.4,3.6c0.5,1.4,0.7,2.5,0.7,3.4v61.6c0,1.3,0.5,2.4,1.4,3.3c0.9,0.8,2,1.3,3.3,1.3h20.6
			v-2.4l-0.3-0.3C176,163.9,175.2,162.7,174.3,159.9z"/>
	</g>
</g>
</svg>
